<svg viewBox="0 0 1024 332" fill="currentColor" xmlns="http://www.w3.org/2000/svg">
<path d="M325.269 171.789C325.519 171.789 246.619 126.436 246.388 125.102C244.603 115.463 242.355 99.5449 231.471 91.3102C222.104 84.285 158.87 55.2948 158.745 54.9924C147.102 37.4498 136.785 19.0683 127.877 0C119.419 6.34611 112.539 14.5479 107.771 23.97C103.003 33.3922 100.475 43.7818 100.382 54.3344C69.3193 58.772 40.165 71.9299 16.3259 92.2707C78.1503 78.1491 95.9571 91.1679 95.9571 91.1679C75.716 94.7622 56.2119 101.673 38.2365 111.621C11.8831 126.063 0 143.404 0 143.404C0 143.404 59.8438 126.347 105.771 142.941C84.3535 145.953 64.4455 155.654 48.9064 170.651C144.096 182.407 191.04 264.753 210.792 331.289C218.054 212.945 158.941 168.001 158.941 168.001C176.106 169.228 197.695 182.531 211.505 202.327C253.614 197.596 277.059 210.455 276.863 210.455C276.399 210.455 299.63 203.34 316.009 195.817C314.6 193.701 308.676 186.355 305.304 182.247C305.767 182.283 318.721 181.518 325.269 171.789ZM193.788 119.411C194.716 119.18 215.342 113.4 221.23 115.623C226.582 117.633 226.689 132.821 226.689 132.821C226.689 132.821 214.467 134.529 193.788 119.411Z" fill="#CCCCCC"/>
<path d="M432.558 127.832C412.146 127.832 391.52 142.061 391.52 169.077C391.52 196.093 412.11 210.161 432.451 210.161C452.791 210.161 473.382 196.057 473.382 169.077C473.382 142.096 452.827 127.832 432.558 127.832ZM432.415 194.101C421.174 194.101 409.791 185.564 409.791 169.201C409.791 152.572 421.246 143.875 432.558 143.875C445.797 143.875 455.04 154.172 455.04 168.917C455.04 185.457 443.656 194.101 432.415 194.101Z" fill="#CCCCCC"/>
<path d="M874.768 127.832C854.356 127.832 833.73 142.061 833.73 169.077C833.73 196.093 854.32 210.161 874.661 210.161C895.001 210.161 915.573 196.057 915.573 169.077C915.573 142.096 895.037 127.832 874.768 127.832ZM874.625 194.101C863.366 194.101 852.001 185.564 852.001 169.201C852.001 152.572 863.456 143.875 874.768 143.875C887.989 143.875 897.231 154.172 897.231 168.917C897.231 185.457 885.866 194.101 874.625 194.101Z" fill="#CCCCCC"/>
<path d="M520.357 209.876H515.932L515.629 209.272L476.322 129.896H496.823L518.359 178.343L539.913 129.896H559.95L520.357 209.876Z" fill="#CCCCCC"/>
<path d="M602.987 210.161C578.561 210.161 562.788 193.976 562.788 168.934C562.788 145.12 579.381 127.832 602.238 127.832C625.094 127.832 639.511 143.839 639.511 168.739C639.511 169.379 639.511 170.073 639.511 170.784C639.511 171.495 639.511 172.225 639.511 172.972V174.057H581.237C583.021 187.147 590.872 194.047 604.165 194.047C608.166 194.108 612.136 193.337 615.822 191.785C619.508 190.232 622.83 187.932 625.576 185.03L626.414 184.194L636.281 196.057L635.639 196.769C627.324 205.928 616.922 210.161 602.987 210.161ZM581.576 160.824H621.026C619.384 149.584 612.515 143.163 602.059 143.163C591.604 143.163 583.967 150.046 581.576 160.824Z" fill="#CCCCCC"/>
<path d="M797.49 209.876H792.94L773.027 161.874L753.115 209.876H748.405L716.342 129.895H735.861L752.009 174.377L770.815 129.451H775.508L794.742 174.377L810.461 129.895H829.856L797.49 209.876Z" fill="#CCCCCC"/>
<path d="M701.89 130.02H701.123C695.618 129.859 690.166 131.123 685.297 133.688C680.428 136.254 676.309 140.033 673.342 144.657L672.968 129.878H655.732V208.258H673.574V171.087C673.574 163.421 677.553 157.232 684.779 152.999C691.47 149.086 700.73 147.29 706.85 148.801C705.441 143.163 701.89 130.02 701.89 130.02Z" fill="#CCCCCC"/>
<path d="M992.722 208.258H974.879V145.493H959.035L963.121 129.878H974.879V125.574C974.879 107.255 985.407 96.3168 1003.07 96.3168C1010.26 96.196 1017.3 98.3573 1023.18 102.488L1024 103.075L1016.08 116.485L1015.08 115.667C1012.07 113.063 1008.2 111.651 1004.21 111.701C996.915 111.701 992.722 116.503 992.722 124.898V129.931H1018.49V145.547H992.722V208.258Z" fill="#CCCCCC"/>
<path d="M947.476 208.258H929.634V98.2197H947.476V208.258Z" fill="#CCCCCC"/>
</svg>
